HIERARCHY
ROOT Hips
{
	OFFSET 0.000000 0.000000 0.000000 
	CHANNELS 6 Xposition Yposition Zposition Zrotation Yrotation Xrotation
	JOINT LeftUpLeg
	{
		OFFSET 1.363060 -1.794630 0.839290 
		CHANNELS 3 Zrotation Yrotation Xrotation
		JOINT LeftLeg
		{
			OFFSET 2.448110 -6.726130 0.000000 
			CHANNELS 3 Zrotation Yrotation Xrotation
			JOINT LeftFoot
			{
				OFFSET 2.562200 -7.039590 0.000000 
				CHANNELS 3 Zrotation Yrotation Xrotation
				JOINT LeftToeBase
				{
					OFFSET 0.157640 -0.433110 2.322550 
					CHANNELS 3 Zrotation Yrotation Xrotation
					End Site
					{
						OFFSET 0.000000 0.000000 0.000000 
					}
				}
			}
		}
	}
	JOINT RightUpLeg
	{
		OFFSET -1.305520 -1.794630 0.839290 
		CHANNELS 3 Zrotation Yrotation Xrotation
		JOINT RightLeg
		{
			OFFSET -2.542530 -6.985550 0.000000 
			CHANNELS 3 Zrotation Yrotation Xrotation
			JOINT RightFoot
			{
				OFFSET -2.568260 -7.056230 0.000000 
				CHANNELS 3 Zrotation Yrotation Xrotation
				JOINT RightToeBase
				{
					OFFSET -0.164730 -0.452590 2.363150 
					CHANNELS 3 Zrotation Yrotation Xrotation
					End Site
					{
						OFFSET 0.000000 0.000000 0.000000 
					}
				}
			}
		}
	}
	JOINT Spine
	{
		OFFSET 0.028270 2.035590 -0.193380 
		CHANNELS 3 Zrotation Yrotation Xrotation
		JOINT Spine1
		{
			OFFSET 0.056720 2.048850 -0.042750 
			CHANNELS 3 Zrotation Yrotation Xrotation
			JOINT Neck1
			{
				OFFSET -0.054170 1.746240 0.172020 
				CHANNELS 3 Zrotation Yrotation Xrotation
				JOINT Head
				{
					OFFSET 0.104070 1.761360 -0.123970 
					CHANNELS 3 Zrotation Yrotation Xrotation
					End Site
					{
						OFFSET 0.000000 0.000000 0.000000 
					}
				}
			}
			JOINT LeftArm
			{
				OFFSET 3.362410 1.200890 -0.311210 
				CHANNELS 3 Zrotation Yrotation Xrotation
				JOINT LeftForeArm
				{
					OFFSET 4.983000 -0.000000 -0.000000 
					CHANNELS 3 Zrotation Yrotation Xrotation
					JOINT LeftHand
					{
						OFFSET 3.483560 -0.000000 -0.000000 
						CHANNELS 3 Zrotation Yrotation Xrotation
						JOINT LeftHandIndex1
						{
							OFFSET 0.715260 -0.000000 -0.000000 
							CHANNELS 3 Zrotation Yrotation Xrotation
							End Site
							{
								OFFSET 0.000000 0.000000 0.000000 
							}
						}
					}
				}
			}
			JOINT RightArm
			{
				OFFSET -3.136600 1.374050 -0.404650 
				CHANNELS 3 Zrotation Yrotation Xrotation
				JOINT RightForeArm
				{
					OFFSET -5.241900 -0.000000 -0.000000 
					CHANNELS 3 Zrotation Yrotation Xrotation
					JOINT RightHand
					{
						OFFSET -3.444170 -0.000000 -0.000000 
						CHANNELS 3 Zrotation Yrotation Xrotation
						JOINT RightHandIndex1
						{
							OFFSET -0.622530 -0.000000 -0.000000 
							CHANNELS 3 Zrotation Yrotation Xrotation
							End Site
							{
								OFFSET 0.000000 0.000000 0.000000 
							}
						}
					}
				}
			}
		}
	}
}
MOTION
Frames: 12
Frame Time: 0.041667
-36.037418 17.770860 0.016624 95.766122 86.180381 103.870226 -13.173999 -0.330602 -21.483243 0.850312 10.357426 28.383107 1.864779 0.227927 9.604834 4.093300 12.283600 36.742700 5.473193 1.131337 -17.699681 -9.340836 -18.041579 57.881412 -1.150127 2.025291 4.216195 -0.055800 1.523900 -4.191600 -1.204309 -0.316557 -2.707742 0.178321 0.171922 4.536044 6.455640 0.658330 5.724476 -0.240000 0.518500 4.084400 -71.642875 1.586223 -2.832370 4.218036 -13.499319 -1.510905 -1.954414 -3.858542 10.374863 -7.125000 0.000000 0.000000 76.914672 -1.149007 20.499283 -10.047173 16.746330 -3.037770 1.548636 -3.456126 1.473390 7.125000 0.000000 0.000000 
-35.829951 17.751316 -0.005279 97.758158 85.657270 106.175746 -13.768050 -0.481350 -21.201813 0.859425 10.396694 28.468715 1.977619 -0.140285 8.904310 4.075200 12.259800 36.657300 4.938052 1.067247 -19.501495 -9.317082 -17.916515 57.675571 -1.238174 2.247751 2.463315 -0.136400 2.380000 -6.557000 -1.227965 -0.342214 -2.733901 0.350337 0.143881 4.624585 5.869048 0.613647 5.215603 -0.604000 0.438500 4.303200 -71.701162 0.764790 0.999374 4.963722 -14.752505 -1.746502 -1.900296 -3.758368 8.050763 -7.125000 0.000000 0.000000 76.650862 -1.919899 19.562230 -9.385367 16.001587 -2.796860 1.504970 -3.525589 2.300414 7.125000 0.000000 0.000000 
-35.624056 17.732557 -0.023252 100.815881 85.280777 109.352233 -14.167986 -0.457045 -20.863497 0.909546 10.503840 28.746099 2.208184 -0.791314 8.259656 4.041800 12.215900 36.499900 4.660650 0.864509 -20.978256 -9.095567 -17.698926 56.868456 -1.178107 1.871124 1.396635 -0.250300 3.219000 -8.889000 -1.155961 -0.607375 -2.727022 0.757407 -0.023517 4.798372 5.880941 0.628486 5.824965 -0.485600 0.467700 4.116900 -71.989826 -0.115657 4.129442 5.879060 -16.185902 -2.086230 -1.805501 -3.829018 5.050279 -7.125000 0.000000 0.000000 76.079008 -2.573784 18.792537 -8.740277 15.303486 -2.582425 1.395517 -3.624635 3.347570 7.125000 0.000000 0.000000 
-35.396932 17.724919 -0.020219 110.392640 85.796559 118.373739 -13.266780 -0.410071 -19.785076 0.938856 10.629922 28.924310 2.500238 -1.472174 7.845742 4.039400 12.212700 36.488500 5.799818 0.793534 -21.576806 -8.800016 -17.497864 55.956542 -1.020511 1.172354 0.326059 -0.295700 3.496900 -9.665300 -0.976005 -0.980224 -2.680656 0.920767 -0.201318 4.659221 6.058753 0.733150 6.016067 -0.355900 0.533900 4.219900 -72.070309 -0.702388 7.183489 6.973525 -17.832330 -2.520267 -1.674248 -3.944502 2.053279 -7.125000 0.000000 0.000000 75.752259 -3.405804 18.313839 -8.299511 14.821408 -2.409782 1.292601 -3.563951 4.458087 7.125000 0.000000 0.000000 
-35.179692 17.701218 -0.040438 115.136032 85.635666 122.939890 -13.265718 -0.506675 -19.003381 0.973260 10.729595 29.100728 2.659993 -1.890851 7.117926 4.048500 12.224700 36.531400 5.904802 0.670106 -22.609394 -8.481439 -17.248905 54.896393 -0.967659 0.848331 -0.403087 -0.358000 3.844000 -10.638100 -0.952896 -0.979774 -2.633941 0.959407 -0.215691 4.717682 6.006786 0.563648 6.069479 -0.403900 0.451800 4.289400 -71.948959 -1.760786 10.035550 7.968864 -19.224885 -2.929423 -1.602635 -3.999828 0.085386 -7.125000 0.000000 0.000000 75.654365 -4.124917 18.276585 -8.241520 14.739242 -2.296256 1.301454 -3.174420 4.804266 7.125000 0.000000 0.000000 
-34.959757 17.679651 -0.055602 117.923404 85.455480 125.621022 -13.332987 -0.548415 -18.284832 1.009253 10.819211 29.260033 2.750282 -2.122631 6.274707 3.991400 12.148900 36.260800 5.904840 0.736486 -23.638632 -8.100234 -16.960091 53.629602 -0.847949 0.316883 -0.914438 -0.301400 3.530000 -9.757900 -0.927933 -0.779886 -2.600214 1.213132 -0.150522 4.796628 5.806305 0.179810 6.218731 -0.572500 0.262400 4.396600 -71.917439 -2.971504 12.652964 8.914295 -20.478163 -3.330580 -1.531481 -4.028375 -1.386595 -7.125000 0.000000 0.000000 75.466554 -4.929441 15.787492 -7.375341 13.756423 -2.097655 1.176003 -3.596323 7.571790 7.125000 0.000000 0.000000 
-34.740495 17.657635 -0.065936 119.270176 85.131897 126.853612 -13.547032 -0.544708 -17.554300 1.029552 10.875867 29.332164 2.868263 -2.417228 5.433411 3.990300 12.147500 36.255600 5.714439 0.732866 -24.634873 -7.696181 -16.644112 52.266372 -0.810196 0.066709 -1.294450 -0.273400 3.363100 -9.291300 -0.768210 -1.503348 -2.627604 1.665480 -0.541537 4.713794 5.925803 0.681623 6.272147 -0.352200 0.497800 4.380100 -72.519882 -3.584217 12.850099 9.963691 -21.775575 -3.794834 -1.416300 -4.009095 -2.534704 -7.125000 0.000000 0.000000 74.419844 -5.724112 14.645117 -6.271658 12.549734 -1.859567 1.012581 -4.128947 10.834056 7.125000 0.000000 0.000000 
-34.521683 17.629666 -0.079752 120.878056 84.855030 128.352821 -13.713397 -0.267383 -16.901138 1.030795 10.891933 29.288999 3.100487 -2.973389 4.808768 3.972700 12.123900 36.171800 5.571194 0.653736 -25.573803 -7.235343 -16.279739 50.706026 -0.786954 -0.138612 -1.579677 -0.295300 3.494500 -9.658500 -0.724366 -1.562329 -2.617529 1.900280 -0.590173 4.660416 5.503727 0.545974 5.973590 -0.601500 0.392700 4.217700 -72.614778 -4.581100 14.342907 10.962343 -22.988203 -4.254067 -1.323242 -4.012172 -3.672979 -7.125000 0.000000 0.000000 73.979952 -6.136323 12.149033 -5.561533 11.664054 -1.671050 0.749886 -4.213848 12.642741 7.125000 0.000000 0.000000 
-34.300961 17.607987 -0.093456 122.940866 84.714883 130.260581 -13.730898 0.246252 -16.262317 1.037437 10.905680 29.239129 3.357555 -3.571162 4.292929 3.831900 11.933300 35.496500 5.571822 0.597931 -26.343624 -6.691939 -15.852992 48.870978 -0.706765 -0.513603 -1.676016 -0.257300 3.263600 -9.013400 -0.650374 -1.690327 -2.614480 2.142833 -0.678916 4.580563 5.530404 0.576109 6.091984 -0.563500 0.409800 4.264300 -72.756959 -5.350205 15.780698 12.090732 -24.339467 -4.802365 -1.224123 -4.034815 -4.901137 -7.125000 0.000000 0.000000 73.572818 -6.910542 10.742364 -4.989161 10.967166 -1.519466 0.734770 -4.319570 14.584932 7.125000 0.000000 0.000000 
-34.076308 17.596979 -0.106149 124.674783 84.495035 131.806639 -13.777992 0.530219 -15.384827 0.989370 10.843814 28.942767 3.559819 -4.032440 3.950257 3.850300 11.958500 35.585400 5.486547 0.473089 -26.980185 -6.112974 -15.379187 46.877636 -0.546787 -1.100372 -1.422842 -0.183600 2.759500 -7.609900 -0.559661 -1.918708 -2.608433 2.450860 -0.824061 4.498419 5.720105 0.700398 6.204878 -0.415400 0.478000 4.306300 -73.032121 -5.985470 17.009623 13.355865 -25.812992 -5.447578 -1.122751 -4.051855 -6.119936 -7.125000 0.000000 0.000000 73.069739 -8.092374 10.492991 -4.772061 10.812206 -1.463286 0.742269 -4.396147 15.136565 7.125000 0.000000 0.000000 
-33.878051 17.598102 -0.104801 128.833321 85.012500 135.972610 -12.905059 0.604473 -14.657438 0.896588 10.691501 28.426140 3.594468 -3.987555 3.943948 4.039200 12.212400 36.487500 6.175308 1.067107 -27.745343 -5.468842 -14.847819 44.689774 -0.184759 -2.219695 -0.810427 -0.159900 2.576000 -7.100500 -0.412162 -1.936324 -2.646581 2.651054 -0.845066 4.207309 5.754208 0.741791 6.207922 -0.398100 0.497400 4.320400 -73.163517 -6.805293 18.131600 14.594525 -27.157898 -6.088259 -1.035035 -4.029964 -7.122881 -7.125000 0.000000 0.000000 72.697014 -8.816823 8.700178 -4.358577 10.314307 -1.366959 0.593814 -4.482089 17.555189 7.125000 0.000000 0.000000 
-33.636099 17.590913 -0.123110 126.904513 84.113476 133.971660 -13.737104 0.746763 -13.627353 0.774378 10.517874 27.772522 3.847405 -4.640237 3.698733 4.179500 12.395600 37.146100 5.249627 0.461126 -28.337839 -4.883118 -14.257892 42.451596 -0.037293 -2.749074 -0.199737 -0.152100 2.512800 -6.925300 -0.440495 -2.172890 -2.601139 2.960376 -1.007200 4.430632 5.605004 0.787240 6.194519 -0.496700 0.511100 4.280700 -73.185879 -7.695486 19.042333 15.755892 -28.386114 -6.710560 -0.936129 -3.996790 -7.976293 -7.125000 0.000000 0.000000 72.361119 -9.537332 7.326959 -4.084229 10.001779 -1.290903 0.490300 -4.491013 19.516115 7.125000 0.000000 0.000000 
